<svg width="54" height="54" viewBox="0 0 54 54" fill="none" xmlns="http://www.w3.org/2000/svg">
<path d="M31.2052 51.2992L32.5605 49.0098L29.3333 47.0995L27.978 49.3892L31.2052 51.2992ZM21.1895 49.0098L22.5448 51.2992L25.7717 49.3892L24.4165 47.0995L21.1895 49.0098ZM27.978 49.3892C27.4963 50.2032 26.2537 50.2032 25.7717 49.3892L22.5448 51.2992C24.4788 54.5667 29.2712 54.5667 31.2052 51.2992L27.978 49.3892ZM23.125 3.75H30.625V5.15135e-07H23.125V3.75ZM50 23.125V25.625H53.75V23.125H50ZM3.75 25.625V23.125H5.15135e-07V25.625H3.75ZM5.15135e-07 25.625C5.15135e-07 28.5115 -0.00102457 30.7703 0.123275 32.592C0.24875 34.4308 0.508076 35.961 1.09423 37.376L4.55878 35.941C4.19343 35.059 3.97703 33.9845 3.8646 32.3368C3.75103 30.6723 3.75 28.5627 3.75 25.625H5.15135e-07ZM16.3812 42.479C13.2426 42.4248 11.5981 42.2253 10.309 41.6912L8.87393 45.1558C10.8864 45.9893 13.1784 46.1743 16.3167 46.2283L16.3812 42.479ZM1.09423 37.376C2.5532 40.8982 5.35165 43.6968 8.87393 45.1558L10.309 41.6912C7.70555 40.6128 5.63715 38.5445 4.55878 35.941L1.09423 37.376ZM50 25.625C50 28.5627 49.999 30.6723 49.8855 32.3368C49.773 33.9845 49.5565 35.059 49.1912 35.941L52.6558 37.376C53.242 35.961 53.5013 34.4308 53.6268 32.592C53.751 30.7703 53.75 28.5115 53.75 25.625H50ZM37.4333 46.2283C40.5715 46.1743 42.8637 45.9893 44.876 45.1558L43.441 41.6912C42.152 42.2253 40.5073 42.4248 37.3688 42.479L37.4333 46.2283ZM49.1912 35.941C48.1128 38.5445 46.0445 40.6128 43.441 41.6912L44.876 45.1558C48.3982 43.6968 51.1968 40.8982 52.6558 37.376L49.1912 35.941ZM30.625 3.75C34.753 3.75 37.7175 3.75198 40.0298 3.97183C42.3143 4.18903 43.7677 4.60558 44.9265 5.3157L46.886 2.1183C45.0387 0.986426 42.9435 0.481975 40.3848 0.238675C37.8538 -0.00197459 34.6805 5.15135e-07 30.625 5.15135e-07V3.75ZM53.75 23.125C53.75 19.0695 53.752 15.8962 53.5112 13.3653C53.268 10.8064 52.7635 8.71113 51.6318 6.86408L48.4342 8.82345C49.1445 9.98228 49.561 11.4359 49.7783 13.7202C49.998 16.0325 50 18.9969 50 23.125H53.75ZM44.9265 5.3157C46.3563 6.1918 47.5582 7.3938 48.4342 8.82345L51.6318 6.86408C50.4465 4.92985 48.8203 3.3036 46.886 2.1183L44.9265 5.3157ZM23.125 5.15135e-07C19.0695 5.15135e-07 15.8962 -0.00197459 13.3653 0.238675C10.8064 0.481975 8.71113 0.986426 6.86408 2.1183L8.82345 5.3157C9.98228 4.60558 11.4359 4.18903 13.7202 3.97183C16.0325 3.75198 18.9969 3.75 23.125 3.75V5.15135e-07ZM3.75 23.125C3.75 18.9969 3.75198 16.0325 3.97183 13.7202C4.18903 11.4359 4.60558 9.98228 5.3157 8.82345L2.1183 6.86408C0.986426 8.71113 0.481975 10.8064 0.238675 13.3653C-0.00197459 15.8962 5.15135e-07 19.0695 5.15135e-07 23.125H3.75ZM6.86408 2.1183C4.92985 3.3036 3.3036 4.92985 2.1183 6.86408L5.3157 8.82345C6.1918 7.3938 7.3938 6.1918 8.82345 5.3157L6.86408 2.1183ZM24.4165 47.0995C23.909 46.242 23.4635 45.4853 23.0303 44.8908C22.5737 44.2648 22.0505 43.701 21.3246 43.2788L19.4393 46.5205C19.5578 46.5892 19.7193 46.715 19.9996 47.0995C20.3031 47.516 20.6459 48.0913 21.1895 49.0098L24.4165 47.0995ZM16.3167 46.2283C17.4144 46.2472 18.1097 46.2613 18.6397 46.3198C19.135 46.3748 19.3269 46.455 19.4393 46.5205L21.3246 43.2788C20.5927 42.853 19.8312 42.6788 19.0524 42.5925C18.3085 42.5103 17.4094 42.4967 16.3812 42.479L16.3167 46.2283ZM32.5605 49.0098C33.104 48.0913 33.4468 47.516 33.7503 47.0995C34.0305 46.715 34.192 46.5892 34.3105 46.5205L32.4253 43.2788C31.6995 43.701 31.176 44.2648 30.7197 44.8908C30.2865 45.4853 29.841 46.242 29.3333 47.0995L32.5605 49.0098ZM37.3688 42.479C36.3405 42.4967 35.4415 42.5103 34.6975 42.5925C33.9188 42.6788 33.1572 42.853 32.4253 43.2788L34.3105 46.5205C34.423 46.455 34.615 46.3748 35.1102 46.3198C35.6403 46.2613 36.3355 46.2472 37.4333 46.2283L37.3688 42.479Z" fill="black" fill-opacity="0.5"/>
</svg>
