<svg width="31" height="26" viewBox="0 0 31 26" fill="none" xmlns="http://www.w3.org/2000/svg">
<path d="M2.61111 8.05882L5.83333 25H25.1667L28.3889 8.05882M2.61111 8.05882L5.37616 9.99716C7.17407 11.2575 8.073 11.8877 8.97912 11.9855C9.77298 12.0712 10.5748 11.895 11.2287 11.4914C11.9751 11.0307 12.4286 10.1035 13.3355 8.24907L15.5 3.82353M2.61111 8.05882C3.5009 8.05882 4.22222 7.42675 4.22222 6.64706C4.22222 5.86737 3.5009 5.23529 2.61111 5.23529C1.72133 5.23529 1 5.86737 1 6.64706C1 7.42675 1.72133 8.05882 2.61111 8.05882ZM28.3889 8.05882L25.6239 9.99718C23.8259 11.2575 22.9271 11.8877 22.0208 11.9855C21.227 12.0712 20.4252 11.895 19.7712 11.4914C19.025 11.0307 18.5714 10.1035 17.6645 8.24907L15.5 3.82353M28.3889 8.05882C29.2787 8.05882 30 7.42675 30 6.64706C30 5.86737 29.2787 5.23529 28.3889 5.23529C27.4991 5.23529 26.7778 5.86737 26.7778 6.64706C26.7778 7.42675 27.4991 8.05882 28.3889 8.05882ZM15.5 3.82353C16.3898 3.82353 17.1111 3.19145 17.1111 2.41176C17.1111 1.63208 16.3898 1 15.5 1C14.6102 1 13.8889 1.63208 13.8889 2.41176C13.8889 3.19145 14.6102 3.82353 15.5 3.82353ZM15.5 2.41176H15.5161M28.3889 6.64706H28.405M2.61111 6.64706H2.62722" stroke="black" stroke-opacity="0.8" stroke-width="2" stroke-linecap="round" stroke-linejoin="round"/>
</svg>
