<svg width="177" height="34" viewBox="0 0 177 34" fill="none" xmlns="http://www.w3.org/2000/svg">
<path d="M26.8125 5.25L27.8906 13.5469L25.0312 13.7812L23.1562 8.39062C22.8438 8.32812 22.5 8.29688 22.125 8.29688C21.7812 8.26562 21.4062 8.25 21 8.25H19.4531C19.1719 8.25 18.8438 8.25 18.4688 8.25C18.125 8.25 17.8594 8.28125 17.6719 8.34375C17.6719 8.53125 17.6562 9.10938 17.625 10.0781C17.5938 11.0469 17.5625 12.2031 17.5312 13.5469C17.5312 14.8594 17.5312 16.2188 17.5312 17.625V21.9844C17.5312 23.7344 17.5469 25.3281 17.5781 26.7656C17.6406 28.1719 17.6875 29.2188 17.7188 29.9062L21.7969 30.5625L21.6562 33H7.07812L6.9375 30.5625L11.0156 29.9062C11.0469 29.2188 11.0781 28.1719 11.1094 26.7656C11.1406 25.3281 11.1562 23.7344 11.1562 21.9844V17.625C11.1562 16.2188 11.1406 14.8594 11.1094 13.5469C11.1094 12.2031 11.1094 11.0469 11.1094 10.0781C11.1094 9.10938 11.0938 8.53125 11.0625 8.34375C10.875 8.28125 10.5938 8.25 10.2188 8.25C9.875 8.25 9.5625 8.25 9.28125 8.25H7.64062C7.23438 8.25 6.84375 8.26562 6.46875 8.29688C6.09375 8.29688 5.73438 8.32812 5.39062 8.39062L3.65625 13.875L0.75 13.5938L1.73438 5.25C2.04688 5.25 2.48438 5.26563 3.04688 5.29688C3.60938 5.32812 4.21875 5.35938 4.875 5.39062C5.53125 5.42187 6.15625 5.45313 6.75 5.48438C7.375 5.48438 7.89062 5.48438 8.29688 5.48438H20.25C20.6562 5.48438 21.1562 5.48438 21.75 5.48438C22.375 5.45313 23.0156 5.42187 23.6719 5.39062C24.3281 5.35938 24.9219 5.32812 25.4531 5.29688C26.0156 5.26563 26.4688 5.25 26.8125 5.25ZM39.4688 33.375C37.2812 33.375 35.3594 32.9375 33.7031 32.0625C32.0469 31.1562 30.75 29.9219 29.8125 28.3594C28.875 26.7656 28.4062 24.9531 28.4062 22.9219C28.4062 20.6094 28.9375 18.6406 30 17.0156C31.0625 15.3906 32.4531 14.1562 34.1719 13.3125C35.8906 12.4688 37.7188 12.0469 39.6562 12.0469C41.7188 12.0469 43.5312 12.4844 45.0938 13.3594C46.6875 14.2344 47.9219 15.4688 48.7969 17.0625C49.7031 18.625 50.1562 20.4219 50.1562 22.4531C50.1562 24.5156 49.6719 26.375 48.7031 28.0312C47.7656 29.6562 46.4844 30.9531 44.8594 31.9219C43.2344 32.8906 41.4375 33.375 39.4688 33.375ZM39.9375 30.375C40.7188 30.375 41.375 30.125 41.9062 29.625C42.4688 29.125 42.8906 28.3906 43.1719 27.4219C43.4844 26.4531 43.6406 25.2969 43.6406 23.9531C43.6406 21.2656 43.2031 19.0781 42.3281 17.3906C41.4844 15.7031 40.3438 14.8594 38.9062 14.8594C37.7188 14.8594 36.7812 15.4688 36.0938 16.6875C35.4062 17.875 35.0625 19.5 35.0625 21.5625C35.0625 23.2188 35.2656 24.7188 35.6719 26.0625C36.1094 27.4062 36.6875 28.4688 37.4062 29.25C38.1562 30 39 30.375 39.9375 30.375ZM75.1875 14.2031L67.1719 33.1406H64.6875L54.1406 8.57812L51.75 7.82812L51.8906 5.48438H63.6562L63.7969 7.82812L61.4531 8.57812L68.8594 26.8125H66.6094L73.1719 10.0781L75.1875 14.2031ZM82.0781 33.1406L71.3906 8.57812L69.0469 7.82812L69.1875 5.48438H81.3281L81.4688 7.82812L78.5156 8.57812L86.0625 26.8125H84.0938L90.9375 8.57812L87.75 7.82812L87.8906 5.48438H97.4531L97.5938 7.82812L95.2031 8.57812L84.5625 33.1406H82.0781ZM107.766 33.375C105.578 33.375 103.656 32.9375 102 32.0625C100.344 31.1562 99.0469 29.9219 98.1094 28.3594C97.1719 26.7656 96.7031 24.9531 96.7031 22.9219C96.7031 20.6094 97.2344 18.6406 98.2969 17.0156C99.3594 15.3906 100.75 14.1562 102.469 13.3125C104.188 12.4688 106.016 12.0469 107.953 12.0469C110.016 12.0469 111.828 12.4844 113.391 13.3594C114.984 14.2344 116.219 15.4688 117.094 17.0625C118 18.625 118.453 20.4219 118.453 22.4531C118.453 24.5156 117.969 26.375 117 28.0312C116.062 29.6562 114.781 30.9531 113.156 31.9219C111.531 32.8906 109.734 33.375 107.766 33.375ZM108.234 30.375C109.016 30.375 109.672 30.125 110.203 29.625C110.766 29.125 111.188 28.3906 111.469 27.4219C111.781 26.4531 111.938 25.2969 111.938 23.9531C111.938 21.2656 111.5 19.0781 110.625 17.3906C109.781 15.7031 108.641 14.8594 107.203 14.8594C106.016 14.8594 105.078 15.4688 104.391 16.6875C103.703 17.875 103.359 19.5 103.359 21.5625C103.359 23.2188 103.562 24.7188 103.969 26.0625C104.406 27.4062 104.984 28.4688 105.703 29.25C106.453 30 107.297 30.375 108.234 30.375ZM121.031 33L120.891 30.8438L123.797 30.0469C123.828 29.9219 123.859 29.6406 123.891 29.2031C123.922 28.7344 123.953 28.1719 123.984 27.5156C124.016 26.8281 124.031 26.1094 124.031 25.3594L124.078 21.8438C124.078 20.9062 124.047 20.0781 123.984 19.3594C123.922 18.6094 123.812 17.8281 123.656 17.0156L120.656 16.3594V14.25L128.766 12.1406L129.984 12.9375L129.797 16.6406L129.938 16.6875C130.844 14.9375 131.75 13.75 132.656 13.125C133.594 12.5 134.547 12.1875 135.516 12.1875C136.359 12.1875 137.094 12.4219 137.719 12.8906C138.375 13.3594 138.703 14.0938 138.703 15.0938C138.703 16.0938 138.359 16.875 137.672 17.4375C136.984 18 136.188 18.2812 135.281 18.2812C134.531 18.2812 133.859 18.1562 133.266 17.9062C132.672 17.625 132.016 17.1406 131.297 16.4531L132.609 16.5938C132.141 16.9375 131.688 17.375 131.25 17.9062C130.812 18.4375 130.438 19.0469 130.125 19.7344L130.172 23.4375C130.203 24.5938 130.219 25.6406 130.219 26.5781C130.25 27.4844 130.281 28.25 130.312 28.875C130.344 29.4688 130.375 29.8594 130.406 30.0469L134.484 30.75L134.344 33H121.031ZM139.875 33L139.734 30.8438L142.406 30.0469C142.469 29.6406 142.516 29 142.547 28.125C142.578 27.25 142.609 26.2812 142.641 25.2188C142.672 24.125 142.688 23.0781 142.688 22.0781V16.0781C142.688 14.9531 142.672 13.8594 142.641 12.7969C142.641 11.7031 142.625 10.6719 142.594 9.70312C142.594 8.70312 142.578 7.8125 142.547 7.03125C142.516 6.25 142.484 5.60937 142.453 5.10938L138.984 4.64062L138.891 2.625L147.75 0.328125L149.062 1.125C149 2 148.938 2.875 148.875 3.75C148.844 4.625 148.812 5.57812 148.781 6.60938C148.781 7.60938 148.766 8.78125 148.734 10.125C148.734 11.4375 148.734 13.0156 148.734 14.8594L148.688 25.4531C148.688 26.1406 148.703 26.8125 148.734 27.4688C148.766 28.0938 148.781 28.6406 148.781 29.1094C148.812 29.5469 148.844 29.8594 148.875 30.0469L151.781 30.8438L151.641 33H139.875ZM165.047 33H157.172C156.703 32.3438 156.266 31.7812 155.859 31.3125C155.484 30.8125 155.094 30.3281 154.688 29.8594L149.25 23.7188H148.078L148.125 21.9844L149.531 21.6562L156.422 15.1406L153.328 14.625L153.469 12.4219H163.875L164.016 14.625L160.922 15.1875L153.141 21.6562L153.656 19.5469L160.828 27.7031C161.422 28.3906 161.938 28.9688 162.375 29.4375C162.844 29.9062 163.188 30.25 163.406 30.4688L165.188 30.8438L165.047 33ZM171.75 33.4688C170.531 33.4688 169.484 33.0625 168.609 32.25C167.766 31.4062 167.344 30.3906 167.344 29.2031C167.344 28.3906 167.531 27.6562 167.906 27C168.312 26.3438 168.844 25.8281 169.5 25.4531C170.188 25.0469 170.922 24.8438 171.703 24.8438C172.953 24.8438 174 25.2656 174.844 26.1094C175.719 26.9531 176.156 27.9844 176.156 29.2031C176.156 30.3906 175.719 31.4062 174.844 32.25C174 33.0625 172.969 33.4688 171.75 33.4688Z" fill="black"/>
</svg>
