<svg width="49" height="50" viewBox="0 0 49 50" fill="none" xmlns="http://www.w3.org/2000/svg">
<path d="M24.6047 11.9125C27.6181 11.9125 30.0609 9.46965 30.0609 6.45625C30.0609 3.44285 27.6181 1 24.6047 1C21.5913 1 19.1484 3.44285 19.1484 6.45625C19.1484 9.46965 21.5913 11.9125 24.6047 11.9125Z" stroke="black" stroke-width="2"/>
<path d="M42.5187 30.8218C45.5322 30.8218 47.975 28.379 47.975 25.3656C47.975 22.3521 45.5322 19.9093 42.5187 19.9093C39.5053 19.9093 37.0625 22.3521 37.0625 25.3656C37.0625 28.379 39.5053 30.8218 42.5187 30.8218Z" stroke="black" stroke-width="2"/>
<path d="M24.6047 48.6062C27.6181 48.6062 30.0609 46.1634 30.0609 43.15C30.0609 40.1366 27.6181 37.6937 24.6047 37.6937C21.5913 37.6937 19.1484 40.1366 19.1484 43.15C19.1484 46.1634 21.5913 48.6062 24.6047 48.6062Z" stroke="black" stroke-width="2"/>
<path d="M6.45625 40.6C9.46965 40.6 11.9125 38.1572 11.9125 35.1437C11.9125 32.1303 9.46965 29.6875 6.45625 29.6875C3.44285 29.6875 1 32.1303 1 35.1437C1 38.1572 3.44285 40.6 6.45625 40.6Z" stroke="black" stroke-width="2"/>
<path d="M6.45625 19.2625C9.46965 19.2625 11.9125 16.8196 11.9125 13.8062C11.9125 10.7928 9.46965 8.34998 6.45625 8.34998C3.44285 8.34998 1 10.7928 1 13.8062C1 16.8196 3.44285 19.2625 6.45625 19.2625Z" stroke="black" stroke-width="2"/>
<path d="M24.5937 27.5875C27.0273 27.5875 29 25.6148 29 23.1813C29 20.7478 27.0273 18.775 24.5937 18.775C22.1602 18.775 20.1875 20.7478 20.1875 23.1813C20.1875 25.6148 22.1602 27.5875 24.5937 27.5875Z" stroke="black" stroke-width="2"/>
<path d="M11.1484 11.0219L19.3328 7.86255" stroke="black" stroke-width="2"/>
<path d="M28.4297 10.3562L38.6297 21.5406" stroke="black" stroke-width="2"/>
<path d="M39.1797 29.6781L28.4922 39.325" stroke="black" stroke-width="2"/>
<path d="M9.45312 18.3624L21.2187 38.8749" stroke="black" stroke-width="2"/>
<path d="M11.2812 37.6843L19.1469 41.3312" stroke="black" stroke-width="2"/>
<path d="M8.5 30.0812L21.6531 11.0405" stroke="black" stroke-width="2"/>
<path d="M11.4766 15.9437L20.6828 21.1469" stroke="black" stroke-width="2"/>
<path d="M29.0078 23.6781L37.0609 24.2875" stroke="black" stroke-width="2"/>
<path d="M24.5938 27.5968L24.6031 37.6843" stroke="black" stroke-width="2"/>
</svg>
