<svg width="47" height="46" viewBox="0 0 47 46" fill="none" xmlns="http://www.w3.org/2000/svg">
<path d="M31.3786 0V0.959285V6.92056L21.5756 16.8103C21.0475 16.5066 20.4385 16.3078 19.7871 16.3078C17.7872 16.3078 16.1647 17.9675 16.1647 19.9851C16.1647 20.6422 16.3618 21.2339 16.6628 21.7666L6.85983 31.6564H0.950867H0V32.6157V38.9881V39.9474H0.950867H7.26734H8.21821V38.9881V33.0268L17.2514 23.9136C13.7446 30.7488 14.0104 39.2455 18.6551 46L20.172 44.9037C15.6574 38.3384 15.6906 29.9913 19.5607 23.5938C19.6383 23.5982 19.7082 23.6395 19.7871 23.6395C21.787 23.6395 23.4321 22.0027 23.4321 19.9851C23.4321 19.6976 23.3584 19.3856 23.2962 19.1172C23.8518 18.625 24.4398 18.1595 25.0621 17.7239C31.3097 13.3514 39.5191 13.063 46.0491 16.993L47 15.3486C43.4207 13.1944 39.4096 12.1951 35.4085 12.3337C32.2583 12.4428 29.1403 13.2855 26.2847 14.8004L32.737 8.29097H38.646H39.5968V7.33168V0.959287V1.79559e-06H38.646H32.3295L31.3786 0ZM33.2803 1.91857H37.6951V6.37239H33.2803V1.91857ZM1.90173 33.575H6.31647V38.0288H1.90173V33.575Z" fill="black"/>
</svg>
