<svg width="35" height="31" viewBox="0 0 35 31" fill="none" xmlns="http://www.w3.org/2000/svg">
<path fill-rule="evenodd" clip-rule="evenodd" d="M0 25.6087C0 20.9263 3.22935 16.9409 7.74192 15.4515C8.9684 15.0466 10.2897 14.8261 11.6667 14.8261C13.0437 14.8261 14.365 15.0466 15.5913 15.4515C16.2577 15.6713 16.8959 15.9457 17.5 16.2686C18.1041 15.9457 18.7423 15.6713 19.4087 15.4515C20.635 15.0466 21.9563 14.8261 23.3333 14.8261C24.7104 14.8261 26.0316 15.0466 27.258 15.4515C31.7707 16.9409 35 20.9263 35 25.6087V31H24.7917V28.3043H32.0833V25.6087C32.0833 21.1424 28.1659 17.5217 23.3333 17.5217C22.1723 17.5217 21.0642 17.7307 20.0503 18.1103C22.0827 20.0508 23.3333 22.6947 23.3333 25.6087V31H0V25.6087ZM11.6667 13.4783C10.327 13.4783 9.07177 13.1444 7.99299 12.5617C5.82886 11.3929 4.375 9.22292 4.375 6.73913C4.375 3.01721 7.63959 0 11.6667 0C14.0519 0 16.1696 1.05851 17.5 2.69499C18.8304 1.05851 20.9481 0 23.3333 0C27.3605 0 30.625 3.01721 30.625 6.73913C30.625 9.22292 29.1711 11.3929 27.007 12.5617C25.9282 13.1444 24.6731 13.4783 23.3333 13.4783C21.9936 13.4783 20.7385 13.1444 19.6597 12.5617C18.8176 12.1069 18.0831 11.5006 17.5 10.7833C16.9169 11.5007 16.1824 12.1069 15.3403 12.5617C14.2615 13.1444 13.0063 13.4783 11.6667 13.4783ZM20.4167 25.6087V28.3043H2.91667V25.6087C2.91667 21.1424 6.83418 17.5217 11.6667 17.5217C16.4992 17.5217 20.4167 21.1424 20.4167 25.6087ZM16.0417 6.73913C16.0417 8.97228 14.0828 10.7826 11.6667 10.7826C9.25042 10.7826 7.29167 8.97228 7.29167 6.73913C7.29167 4.50598 9.25042 2.69565 11.6667 2.69565C14.0828 2.69565 16.0417 4.50598 16.0417 6.73913ZM23.3333 2.69565C20.9172 2.69565 18.9583 4.50598 18.9583 6.73913C18.9583 8.97228 20.9172 10.7826 23.3333 10.7826C25.7495 10.7826 27.7083 8.97228 27.7083 6.73913C27.7083 4.50598 25.7495 2.69565 23.3333 2.69565Z" fill="#080341"/>
</svg>
