<svg width="34" height="25" viewBox="0 0 34 25" fill="none" xmlns="http://www.w3.org/2000/svg">
<path d="M24.1111 8.66667L28.6921 5.70335C30.102 4.79122 30.8071 4.33517 31.3872 4.39348C31.893 4.44431 32.3545 4.726 32.6551 5.16747C33 5.67375 33 6.56015 33 8.33297V16.667C33 18.4397 33 19.3262 32.6551 19.8326C32.3545 20.274 31.893 20.5557 31.3872 20.6065C30.8071 20.6648 30.102 20.2088 28.6921 19.2967L24.1111 16.3333M6.68889 24H18.4222C20.4135 24 21.4092 24 22.1698 23.5822C22.8388 23.2147 23.3828 22.6282 23.7236 21.907C24.1111 21.0871 24.1111 20.0135 24.1111 17.8667V7.13333C24.1111 4.98647 24.1111 3.91303 23.7236 3.09304C23.3828 2.37174 22.8388 1.78532 22.1698 1.41781C21.4092 1 20.4135 1 18.4222 1H6.68889C4.6976 1 3.70194 1 2.94137 1.41781C2.27234 1.78532 1.72841 2.37174 1.38754 3.09304C1 3.91303 1 4.98646 1 7.13333V17.8667C1 20.0135 1 21.0871 1.38754 21.907C1.72841 22.6282 2.27234 23.2147 2.94137 23.5822C3.70194 24 4.69758 24 6.68889 24Z" stroke="black" stroke-width="2" stroke-linecap="round" stroke-linejoin="round"/>
</svg>
