<svg width="37" height="38" viewBox="0 0 37 38" fill="none" xmlns="http://www.w3.org/2000/svg">
<path d="M17.7688 32.5C17.7688 34.9853 15.8915 37 13.5758 37C11.2601 37 9.38281 34.9853 9.38281 32.5C9.38281 30.0147 11.2601 28 13.5758 28C15.8915 28 17.7688 30.0147 17.7688 32.5Z" stroke="#1C274C" stroke-width="2"/>
<path d="M35.386 22.5C35.386 24.9853 33.5087 27 31.193 27C28.8773 27 27 24.9853 27 22.5C27 20.0147 28.8773 18 31.193 18C33.5087 18 35.386 20.0147 35.386 22.5Z" stroke="#1C274C" stroke-width="2"/>
<path d="M34.5454 11.7999L17.7734 18.9999" stroke="#1C274C" stroke-width="2" stroke-linecap="round"/>
<path d="M33.2876 19.0007C33.2876 19.7463 33.8508 20.3507 34.5455 20.3507C35.2402 20.3507 35.8034 19.7463 35.8034 19.0007H33.2876ZM19.0314 31.6007V13.3262H16.5156V31.6007H19.0314ZM22.3778 7.92976L25.7322 6.423L24.7609 3.93235L21.4065 5.43911L22.3778 7.92976ZM35.8034 11.8194C35.8034 9.41798 35.8068 7.46363 35.6028 5.98486C35.3954 4.47989 34.9326 3.13639 33.7465 2.28919L32.3526 4.53692C32.6624 4.75816 32.9477 5.17187 33.1142 6.37999C33.2843 7.61431 33.2876 9.3289 33.2876 11.8194H35.8034ZM25.7322 6.423C27.8728 5.46144 29.3479 4.80272 30.4745 4.4946C31.5772 4.19303 32.043 4.31566 32.3526 4.53692L33.7465 2.28919C32.5604 1.44196 31.2269 1.50255 29.8532 1.87823C28.5034 2.24735 26.8249 3.00519 24.7609 3.93235L25.7322 6.423ZM19.0314 13.3262C19.0314 12.1354 19.0331 11.3498 19.0943 10.7455C19.1522 10.1739 19.2533 9.8921 19.3826 9.68373L17.2881 8.18784C16.8556 8.88559 16.6758 9.63754 16.5933 10.4539C16.514 11.2375 16.5156 12.1941 16.5156 13.3262H19.0314ZM21.4065 5.43911C20.4334 5.87621 19.6106 6.24382 18.9677 6.62488C18.2978 7.02187 17.7209 7.49011 17.2881 8.18784L19.3826 9.68373C19.5118 9.47538 19.7149 9.26635 20.1838 8.98839C20.6798 8.69451 21.3544 8.38949 22.3778 7.92976L21.4065 5.43911ZM35.8034 19.0007V11.8194H33.2876V19.0007H35.8034Z" fill="#1C274C"/>
<path d="M9.38281 17.2V9.1V1" stroke="#1C274C" stroke-width="2" stroke-linecap="round"/>
<path d="M5.193 20.7999C7.50873 20.7999 9.386 18.7852 9.386 16.2999C9.386 13.8146 7.50873 11.7999 5.193 11.7999C2.87727 11.7999 1 13.8146 1 16.2999C1 18.7852 2.87727 20.7999 5.193 20.7999Z" stroke="#1C274C" stroke-width="2"/>
<path d="M14.4144 6.4C12.3303 6.4 9.38281 4.72793 9.38281 1" stroke="#1C274C" stroke-width="2" stroke-linecap="round"/>
</svg>
