<svg width="28" height="46" viewBox="0 0 28 46" fill="none" xmlns="http://www.w3.org/2000/svg">
<path d="M23.8424 5.49694H16.913C15.677 5.47849 15.7145 7.30466 16.913 7.30466H23.8237V8.20852H16.9505C15.6957 8.20852 15.7332 10.0162 16.9505 10.0162H23.8424V10.9201V10.957H16.9505C15.6957 10.957 15.7332 12.7832 16.9505 12.7832H23.8424V13.687H16.9505C15.7145 13.687 15.7332 15.4947 16.9505 15.4947H23.8424V16.3986H16.9505C15.7145 16.3986 15.7145 18.2248 16.9505 18.2063H23.8424V19.1286H16.9505C15.7145 19.1102 15.7145 20.9363 16.9505 20.9363H23.8424V21.8402H16.9505C15.7145 21.8402 15.7145 23.6479 16.9505 23.6479H23.8424V24.5518H16.9505C15.7145 24.5518 15.7332 26.3779 16.9505 26.3779H23.8424V43.994C23.8237 46.6871 28 46.6502 28 43.994V2.78536C28 1.56792 26.97 0.0184461 25.2657 0.0184461L16.913 0C15.677 0.0184461 15.7145 1.82616 16.913 1.82616H23.8237V2.73002H16.913C15.677 2.73002 15.7145 4.55619 16.913 4.53774H23.8237V5.49694H23.8424Z" fill="black"/>
<path d="M13.449 32.6275V20.5453L11.1386 0.66814C11.0635 0.129916 10.7441 0 10.4248 0C10.1243 0 9.78619 0.111357 9.72984 0.66814L7.47582 20.5453V32.6275C3.21197 30.4375 0.0187835 33.8524 0 36.9518C0.0187835 39.7172 2.08497 42 5.03397 42C7.98298 41.9814 9.99281 39.4388 9.99281 36.9518V24.814H10.932V36.9518C10.932 39.8285 13.2987 41.9629 15.8157 41.9629C18.9901 41.9629 20.9999 39.7543 20.9999 36.9704C21.0187 33.8338 17.7128 30.4375 13.449 32.6275ZM4.97762 39.4759C3.58764 39.4759 2.47942 38.3624 2.46063 36.989C2.47942 35.6341 3.58764 34.5205 4.97762 34.5205C6.3676 34.5205 7.49461 35.6156 7.49461 36.989C7.49461 38.3624 6.3676 39.4759 4.97762 39.4759ZM16.0223 39.4759C14.6511 39.4759 13.5241 38.3624 13.5241 36.989C13.5241 35.6341 14.6323 34.5205 16.0223 34.5205C17.4123 34.5205 18.5393 35.6156 18.5393 36.989C18.5393 38.3624 17.4311 39.4759 16.0223 39.4759Z" fill="black"/>
</svg>
