<svg width="48" height="48" viewBox="0 0 48 48" fill="none" xmlns="http://www.w3.org/2000/svg">
<path d="M9.89844 24.5125L16.5484 8.40002" stroke="black" stroke-width="1.25" stroke-linecap="round" stroke-linejoin="round"/>
<path d="M22.9219 24.5625L16.5469 8.40002" stroke="black" stroke-width="1.25" stroke-linecap="round" stroke-linejoin="round"/>
<path d="M20.7969 19.15H12.1094" stroke="black" stroke-width="1.25" stroke-linecap="round" stroke-linejoin="round"/>
<path d="M34.9062 25.85H43.3062" stroke="black" stroke-width="1.25" stroke-linecap="round" stroke-linejoin="round"/>
<path d="M38.7219 25.85C38.7219 31.275 32.1094 40.2375 25.4844 41.6125" stroke="black" stroke-width="1.25" stroke-linecap="round" stroke-linejoin="round"/>
<path d="M29.0312 35.1124C31.6938 38.1124 36.0437 41.0374 40.0562 41.6124" stroke="black" stroke-width="1.25" stroke-linecap="round" stroke-linejoin="round"/>
<path d="M27.2875 1H5.55C3.03711 1 1 3.03711 1 5.55V27.2875C1 29.8004 3.03711 31.8375 5.55 31.8375H27.2875C29.8004 31.8375 31.8375 29.8004 31.8375 27.2875V5.55C31.8375 3.03711 29.8004 1 27.2875 1Z" stroke="black" stroke-width="1.25" stroke-linecap="round" stroke-linejoin="round"/>
<path d="M16.4141 31.8375V42.7C16.4141 45.2 18.4641 47.25 20.9641 47.25H42.6891C45.1891 47.25 47.2391 45.2 47.2391 42.7V20.9625C47.2391 18.4625 45.1891 16.4125 42.6891 16.4125H31.8266" stroke="black" stroke-width="1.25" stroke-linecap="round" stroke-linejoin="round"/>
</svg>
